<svg width="146" height="147" fill="none" xmlns="http://www.w3.org/2000/svg"><path d="M68.0106 32.4647c9.4527-.263 18.0178-4.028 26.0118-3.0756 7.9936.9525 15.4946 6.4635 18.8056 13.785 3.297 7.4323 2.406 16.6751-1.703 23.4025-4.172 6.7754-11.5628 11.0353-12.3177 19.676-.7695 8.7514 5.1117 21.7724 3.2077 29.3014s-11.5449 9.628-20.0673 7.985c-8.5224-1.643-15.9893-6.981-22.0303-12.015-6.1038-4.987-11.0033-9.7-19.7445-14.3616-8.852-4.6761-21.6565-9.3149-25.6185-16.8358-3.962-7.5209.9184-17.924 6.235-27.3667 5.2538-9.3946 11.0066-17.8768 19.0918-20.5779 8.0853-2.701 18.6139.3938 28.1294.0827z" fill="#633A56"/></svg>