<svg width="308" height="303" fill="none" xmlns="http://www.w3.org/2000/svg"><path d="M243.243 158.127c-3.433 20.376 1.016 40.331-4.406 57.067-5.423 16.735-20.409 30.484-37.506 34.488-17.329 3.926-36.767-1.894-49.452-13.549-12.761-11.81-18.769-29.456-36.974-34.728-18.437-5.351-48.8401 1.75-64.1759-5.515-15.3357-7.266-15.759-28.822-8.6321-46.398 7.1268-17.576 21.7273-31.327 35.0756-42.149 13.2719-10.9773 25.4484-19.488 39.1384-36.2569 13.768-17.0002 29.128-42.4898 46.928-47.8035 17.799-5.3136 38.038 9.5488 56.034 24.9402 17.919 15.2364 33.671 31.1566 36.043 49.6327 2.372 18.4765-8.716 39.7395-12.073 60.2715z" fill="#633A56"/></svg>