<svg width="171" height="208" fill="none" xmlns="http://www.w3.org/2000/svg"><path d="M108.959 56.4933c15.853 12.191 37.042 12.191 48.474 21.4868C169.018 87.1234 171 105.562 171 123.849c-.152 18.134-2.439 36.421-10.975 50.898-8.384 14.477-23.171 25.296-39.024 30.173-15.701 5.029-32.4687 3.962-44.816-3.658-12.3473-7.619-20.4264-21.791-32.1639-28.953-11.89-7.163-27.5909-7.315-35.3651-14.173C.7293 151.127.8818 137.564.7293 123.849c0-13.715-.1524-27.4299-.6097-48.6119C-.1853 54.2074-.795 25.7108 11.095 11.2338 22.9849-3.0907 47.3747-3.3955 64.9048 8.4908c17.5301 11.8864 28.2006 35.9638 44.0542 48.0025z" fill="#00EDA6"/></svg>