<svg width="178" height="242" fill="none" xmlns="http://www.w3.org/2000/svg"><path d="M147.634.3471c16.98 3.5933 22.125 33.5375 24.355 58.1773 2.23 24.6398 1.372 43.9756 3.259 64.6796 1.887 20.533 6.689 42.093-3.773 52.53-10.463 10.438-36.019 9.583-54.886 23.956-18.6949 14.202-30.8726 43.633-42.0211 42.264-11.1486-1.54-21.6111-33.88-27.7857-55.44-6.3461-21.559-8.5758-32.168-14.0643-41.066-5.66-9.069-14.5789-16.255-21.9541-27.549C3.5602 106.435-1.9283 90.8641.6444 76.662 3.217 62.4599 13.851 49.6267 27.4009 44.1512c13.3783-5.4755 29.8438-3.5933 52.3124-14.031C102.182 19.6825 130.825-3.0751 147.634.3472z" fill="#fff"/></svg>