<svg width="286" height="283" fill="none" xmlns="http://www.w3.org/2000/svg"><path d="M61.5585 142.421c1.3583-18.7-4.3679-36.344-.9015-51.924 3.4664-15.5804 15.8275-29.2816 30.9283-34.3608 15.3167-5.0282 33.3727-1.4343 45.8277 8.0083 12.537 9.5761 19.473 25.001 36.368 28.2059 17.111 3.2561 43.966-5.7588 58.44-.5077 14.474 5.251 16.7 24.6853 11.766 41.1713-4.934 16.486-16.946 30.156-28.077 41.073-11.049 11.05-21.32 19.78-32.252 36.097-10.982 16.534-22.676 40.872-38.299 47.194-15.623 6.323-35.176-5.371-52.7477-17.734-17.4892-12.23-33.0795-25.263-36.8022-41.749-3.7227-16.486 4.4734-36.641 5.7494-55.474z" fill="#F2F2F2"/></svg>