<svg width="367" height="370" fill="none" xmlns="http://www.w3.org/2000/svg"><path d="M171.306 81.7727c23.81-.6626 45.384-10.146 65.519-7.747 20.135 2.3991 39.027 16.2804 47.369 34.7223 8.305 18.72 6.06 42.001-4.291 58.946-10.509 17.066-29.124 27.796-31.026 49.56-1.938 22.044 12.875 54.842 8.079 73.806-4.796 18.963-29.079 24.25-50.545 20.112-21.466-4.139-40.274-17.583-55.49-30.265-15.375-12.56-27.715-24.432-49.733-36.173-22.2964-11.778-54.5485-23.462-64.5281-42.406-9.9796-18.944 2.3133-45.147 15.7048-68.932 13.2334-23.663 27.7235-45.0281 48.0883-51.8316 20.366-6.8035 46.885.9918 70.853.2083z" fill="#633A56"/></svg>