<svg width="192" height="181" fill="none" xmlns="http://www.w3.org/2000/svg"><path d="M121.901 41.1782c15.599 2.879 37.589-7.4571 43.85-3.1641 6.172 4.4184-3.494 23.4847-.544 40.3436 2.95 16.8588 18.39 31.4223 21.073 46.1283 2.772 14.581-7.338 29.216-21.859 31.867-14.627 2.669-33.666-6.645-48.516-9.655-14.744-3.029-25.1732.336-35.4247-.95-10.1258-1.197-20.1619-6.919-33.1186-14.219-12.9379-7.193-28.7964-15.965-33.8165-28.283-4.8946-12.2297 1.0493-28.0055 8.6495-41.8718 7.512-13.7409 16.7176-25.3589 28.0683-34.1631 11.2438-8.7855 24.5257-14.7385 35.77-9.6681 11.2257 4.9638 20.395 20.8443 35.868 23.6352z" fill="#633A56"/></svg>