<svg width="580" height="624" fill="none" xmlns="http://www.w3.org/2000/svg"><path d="M361.209 412.802c-35.181 31.632-56.237 98.68-92.698 125.52-36.461 26.841-88.443 13.038-111.801-25.498-23.082-38.377-17.381-101.765-23.629-147.001-6.409-44.96-24.492-71.61-25.144-98.511-.493-27.177 17.158-54.563 39.617-71.804 22.184-17.401 49.452-24.498 73.009-24.528 23.716-.307 43.56 6.73 66.548 1.951 22.713-4.939 48.293-21.852 90.64-32.769 42.463-10.481 101.577-15.402 125.217 6.72 23.757 22.557 12.082 71.445 4.659 116.155-7.148 44.87-9.886 85.286-35.988 103.74-25.942 18.178-75.249 14.393-110.43 46.025z" fill="#633A56"/></svg>