<svg width="288" height="351" fill="none" xmlns="http://www.w3.org/2000/svg"><path d="M183.509 95.3324c26.701 20.5726 62.387 20.5726 81.642 36.2586C284.662 147.021 288 178.137 288 208.995c-.257 30.602-4.108 61.46-18.485 85.89-14.12 24.43-39.023 42.688-65.724 50.917-26.443 8.486-54.684 6.686-75.479-6.172-20.796-12.857-34.4028-36.773-54.1713-48.859-20.0252-12.087-46.4688-12.344-59.5622-23.916-13.3502-11.829-13.0934-34.716-13.3501-57.86 0-23.144-.2568-46.288-1.027-82.032C-.312 91.475-1.339 43.3869 18.6862 18.9571c20.0253-24.1727 61.1027-24.687 90.6268-4.6288 29.525 20.0582 47.496 60.6888 74.196 81.0041z" fill="#00EDA6"/></svg>