<svg width="189" height="142" fill="none" xmlns="http://www.w3.org/2000/svg"><path d="M169.78 19.406c3.563 4.0487 8.339 6.4308 10.837 10.2832 2.498 3.8525 2.818 9.1513.816 13.2741-2.056 4.1567-6.434 7.1375-10.883 7.7896-4.492.6421-9.056-1.0443-13.12 1.7766-4.118 2.8549-7.682 10.1831-11.678 12.0946-3.995 1.9115-8.432-1.5498-10.82-5.8859-2.389-4.3361-2.772-9.557-2.768-14.0422-.04-4.4952.239-8.3627-.906-13.8957-1.178-5.5869-3.815-12.8932-1.963-17.3739 1.853-4.4806 8.194-6.1355 14.274-7.2488 6.035-1.1233 11.853-1.695 15.986.8647 4.134 2.5598 6.618 8.3051 10.225 12.3637z" fill="#00EDA6"/><path d="M86.7234 64.5708c-3.9366-6.333-10.2137-10.7221-17.1877-12.3784 0 0-3.1834-.89-6.4434-.89-3.2599 0-6.4704.8945-6.4704.8945-7.1381 1.6945-13.3207 6.1465-17.1899 12.3739h47.2914z" fill="#633A56"/><path d="M153.003 59.1502a2.9878 2.9878 0 00-2.713-1.7372h-17.921c-.589 0-1.167.1753-1.657.5012-11.232 7.4837-24.303 11.4412-37.8015 11.4412l-55.9134.1619c-3.9771.5865-7.4506 2.7417-9.7618 5.8206-2.7271-3.6295-7.0662-5.9825-11.9471-5.9825h-.3552C6.8934 69.3554.3533 75.8907.3533 83.925v.2989c0 8.3736 5.933 15.6371 14.1098 17.2711 1.6592.33 3.3769.674 5.0608 1.011 2.2235.445 4.0693 1.868 5.0652 3.902.996 2.036.987 4.366-.0292 6.395-.7374 1.475-.1394 3.268 1.3377 4.005 1.4748.737 3.2689.14 4.0063-1.337 1.5266-3.052 1.8054-6.479.8409-9.673 4.465 6.671 10.8926 11.831 18.3972 14.716-4.5347 6.169-10.7735 11.032-17.8959 13.882l-2.1358.854c-1.3287.53-2.0953 1.93-1.8233 3.337.2698 1.405 1.5018 2.421 2.9317 2.421h69.2926c1.4317 0 2.6617-1.016 2.9317-2.421.27-1.404-.495-2.804-1.823-3.337l-2.1362-.854c-6.4456-2.575-12.0415-6.668-16.4075-11.954 14.0019-2.092 26.7807-9.149 36.0367-19.936l34.441-40.1645c.762-.8855.935-2.1305.449-3.1913zM16.826 93.3279c-4.2311 0-7.662-3.6721-7.662-8.2028 0-4.5307 3.4309-8.2028 7.662-8.2028 4.2312 0 7.662 3.6721 7.662 8.2028 0 4.5307-3.4308 8.2028-7.662 8.2028z" fill="#633A56"/></svg>