<svg width="194" height="142" fill="none" xmlns="http://www.w3.org/2000/svg"><path d="M163.368.278h-15.985c-11.399 0-20.67 9.2751-20.67 20.6726v27.2877c0 10.1019-7.587 18.4674-17.363 19.6912V12.6816c0-2.2795 1.855-4.1345 4.134-4.1345h3.583c2.282 0 4.134-1.8523 4.134-4.1345 0-2.2823-1.852-4.1345-4.134-4.1345H76.8294c-2.282 0-4.134 1.8522-4.134 4.1345 0 2.2822 1.852 4.1345 4.134 4.1345h3.5828c2.2792 0 4.134 1.855 4.134 4.1345v55.2479c-9.7755-1.2238-17.3601-9.5893-17.3601-19.6912V20.9506c0-11.3975-9.2739-20.6725-20.67-20.6725H30.5312c-2.2819 0-4.134 1.8522-4.134 4.1345v16.538c0 2.2822 1.8493 4.1345 4.1313 4.1345l11.8536.0082v23.145c0 23.7899 18.6967 43.2937 42.1641 44.5837v36.177c0 2.279-1.8548 4.134-4.134 4.134h-3.5828c-2.282 0-4.134 1.853-4.134 4.135s1.852 4.134 4.134 4.134h40.2376c2.282 0 4.134-1.852 4.134-4.134s-1.852-4.135-4.134-4.135h-3.583c-2.279 0-4.134-1.855-4.134-4.134V92.8247c23.47-1.2927 42.167-20.7965 42.167-44.5837l.009-23.1559h11.842c2.282 0 4.134-1.8523 4.134-4.1345V4.4126c0-2.2823-1.852-4.1345-4.134-4.1345z" fill="#633A56"/><path d="M66.5109 122.036c-1.0556-.325-2.1001-.678-3.1529-1.011-.1957-.066-.3913-.141-.587-.212 2.2875-.998 3.784-4.728 3.5856-7.214-.2233-2.817-3.0978-10.093-5.9144-9.87-2.8167.223-4.5116 7.858-4.2884 10.678.113 1.444.8599 3.214 1.9375 4.567-.2977-.129-.5926-.256-.8902-.383-3.4753-1.571-6.8129-3.448-9.9768-5.587 2.61-.35 4.7927-4.19 4.9002-6.847.113-2.825-1.8796-10.3885-4.7045-10.5015-2.8249-.113-5.41 7.2715-5.523 10.0935-.0496 1.235.3279 2.759 1.0059 4.093-2.5465-2.015-4.9525-4.214-7.1877-6.579-1.1768-1.235-2.3067-2.517-3.3898-3.8368 2.6843.3859 5.7324-3.0595 6.3801-5.7166.6697-2.7454.2177-10.554-2.5272-11.2266-2.745-.6698-6.744 6.0529-7.4165 8.7982-.237.9647-.237 2.172-.022 3.3572-.4217-.6174-.8378-1.2403-1.2402-1.8715-2.1855-3.462-4.0927-7.1114-5.6581-10.9123 2.5851.9481 6.2561-1.9653 7.3613-4.5066 1.13-2.591 2.0174-10.3639-.5733-11.4912-2.5906-1.1273-7.6782 4.8098-8.8082 7.4008-.1984.452-.3472.9757-.4464 1.5325a71.4758 71.4758 0 01-1.6233-6.8908 68.6191 68.6191 0 01-1.006-8.2635c.091.1268.1902.2508.3032.361 2.0064 1.9901 6.6282.5789 8.618-1.4277 1.9899-2.0066 5.6251-8.9333 3.6159-10.9234-2.0064-1.9901-8.8991 1.7117-10.8862 3.7183-.7111.7194-1.3394 1.7751-1.7666 2.9245.0441-1.0833.0551-2.172.1295-3.2553.102-1.1273.1764-2.2601.3004-3.3902.1571-1.1246.3197-2.2465.3059-3.4069.0138-.5485.0083-1.1025-.0441-1.6703 2.4639-.1158 5.2199-2.8914 6.0054-5.2095.9067-2.6764 1.1382-10.4961-1.5379-11.4029-2.6761-.9069-7.2483 5.441-8.155 8.1174-.8571 2.533-.1846 6.9321 2.158 8.167-.2839.5072-.5237 1.0253-.7442 1.5518-.4244 1.1163-.6146 2.2878-.8405 3.4454-.0386.2316-.0689.4631-.1048.6974-.2701-1.0695-.7055-2.07-1.2512-2.8032-1.6812-2.2712-7.9731-6.9212-10.244-5.2398-2.271 1.6814.3361 9.0573 2.0173 11.3285 1.6812 2.2712 6.0522 4.3275 8.3259 2.6461.1819-.1351.339-.2977.4851-.4713a48.6625 48.6625 0 01-.0827.8903c-.2343 3.2828-.2398 6.5876-.0221 9.8842-.4437-.7056-.9618-1.3231-1.5047-1.7751C9.6544 60.5812 2.4447 57.5547.634 59.724c-1.8107 2.172 2.4694 8.721 4.6384 10.5292 2.1717 1.8109 6.9065 2.7728 8.7145.6036.0303-.0386.0523-.0799.0827-.1185a72.603 72.603 0 004.7844 16.6455c-.6973-.7222-1.48-1.312-2.2351-1.6676-2.5576-1.2045-10.2993-2.3208-11.5036.237-1.2044 2.5579 4.5832 7.817 7.1408 9.0215 2.5576 1.2045 7.3806.9454 8.585-1.6124.1681-.3556.2535-.736.2756-1.1301a69.9606 69.9606 0 001.8079 3.3103 73.6135 73.6135 0 007.9042 11.0635c-.9618-.355-1.9485-.551-2.8001-.537-2.8249.041-10.2689 2.445-10.2275 5.273.0413 2.828 7.5542 5.005 10.3791 4.961 2.7836-.041 6.9148-2.326 6.9975-5.096a73.3643 73.3643 0 006.8267 5.846c1.3008.973 2.6347 1.899 3.9989 2.784-.7138-.028-1.3973.025-1.9898.171-2.745.672-9.4614 4.683-8.7889 7.425.6724 2.746 8.483 3.187 11.228 2.514 2.7091-.664 6.2285-3.828 5.6718-6.552.7607.394 1.5269.783 2.3013 1.15 1.1079.493 2.1993 1.019 3.321 1.48 1.1299.438 2.2516.901 3.3899 1.317 1.152.378 2.3012.767 3.4588 1.128l3.5084.959 1.5957-6.538-3.1887-.855zM127.388 122.036c1.056-.325 2.1-.678 3.153-1.011.196-.066.392-.141.587-.212-2.287-.998-3.784-4.728-3.585-7.214.223-2.817 3.097-10.093 5.914-9.87 2.817.223 4.512 7.858 4.288 10.678-.113 1.444-.859 3.214-1.937 4.567.298-.129.593-.256.89-.383 3.475-1.571 6.813-3.448 9.977-5.587-2.61-.35-4.793-4.19-4.9-6.847-.113-2.825 1.879-10.3885 4.704-10.5015 2.825-.113 5.41 7.2715 5.523 10.0935.05 1.235-.328 2.759-1.006 4.093 2.547-2.015 4.953-4.214 7.188-6.579 1.177-1.235 2.307-2.517 3.39-3.8368-2.684.3859-5.733-3.0595-6.38-5.7166-.67-2.7454-.218-10.554 2.527-11.2266 2.745-.6698 6.744 6.0529 7.416 8.7982.237.9647.237 2.172.022 3.3572.422-.6174.838-1.2403 1.241-1.8715 2.185-3.462 4.092-7.1114 5.658-10.9123-2.585.9481-6.256-1.9653-7.362-4.5066-1.13-2.591-2.017-10.3639.574-11.4912 2.59-1.1273 7.678 4.8098 8.808 7.4008.198.452.347.9757.446 1.5325a71.4788 71.4788 0 001.624-6.8908 68.9028 68.9028 0 001.006-8.2635c-.091.1268-.191.2508-.304.361-2.006 1.9901-6.628.5789-8.618-1.4277-1.989-2.0066-5.625-8.9333-3.615-10.9234 2.006-1.9901 8.899 1.7117 10.886 3.7183.711.7194 1.339 1.7751 1.766 2.9245-.044-1.0833-.055-2.172-.129-3.2553-.102-1.1273-.177-2.2601-.301-3.3902-.157-1.1246-.319-2.2465-.305-3.4069-.014-.5485-.009-1.1025.044-1.6703-2.464-.1158-5.22-2.8914-6.006-5.2095-.906-2.6764-1.138-10.4961 1.538-11.4029 2.676-.9069 7.248 5.441 8.155 8.1174.857 2.533.185 6.9321-2.158 8.167.284.5072.524 1.0253.744 1.5518.425 1.1163.615 2.2878.841 3.4454.038.2316.069.4631.105.6974.27-1.0695.705-2.07 1.251-2.8032 1.681-2.2712 7.973-6.9212 10.244-5.2398s-.336 9.0573-2.017 11.3285c-1.682 2.2712-6.053 4.3275-8.326 2.6461-.182-.1351-.339-.2977-.485-.4713.024.2977.052.5926.082.8903.235 3.2828.24 6.5876.022 9.8842.444-.7056.962-1.3231 1.505-1.7751 2.172-1.8109 9.382-4.8374 11.192-2.6681 1.811 2.172-2.469 8.721-4.638 10.5292-2.172 1.8109-6.907 2.7728-8.715.6036-.03-.0386-.052-.0799-.082-.1185a72.6395 72.6395 0 01-4.785 16.6455c.698-.7222 1.48-1.312 2.235-1.6676 2.558-1.2045 10.3-2.3208 11.504.237 1.204 2.5579-4.583 7.817-7.141 9.0215-2.557 1.2045-7.38.9454-8.585-1.6124-.168-.3556-.253-.736-.275-1.1301-.574 1.119-1.174 2.2216-1.808 3.3103a73.5972 73.5972 0 01-7.905 11.0635c.962-.355 1.949-.551 2.801-.537 2.824.041 10.268 2.445 10.227 5.273-.041 2.828-7.554 5.005-10.379 4.961-2.784-.041-6.915-2.326-6.998-5.096a73.2908 73.2908 0 01-6.826 5.846c-1.301.973-2.635 1.899-3.999 2.784.714-.028 1.397.025 1.99.171 2.745.672 9.461 4.683 8.789 7.425-.673 2.746-8.483 3.187-11.228 2.514-2.71-.664-6.229-3.828-5.672-6.552-.761.394-1.527.783-2.302 1.15-1.107.493-2.199 1.019-3.321 1.48-1.13.438-2.251.901-3.389 1.317-1.152.378-2.302.767-3.459 1.128l-3.509.959-1.595-6.538 3.188-.855z" fill="#00EDA6"/></svg>