<svg width="143" height="173" fill="none" xmlns="http://www.w3.org/2000/svg"><path d="M138.234 22.7966h-16.02c-2.693 0-5.268.5164-7.633 1.4553.354 1.9055.464 3.8882.293 5.94-1.475 8.1132-7.108 14.0449-13.379 19.2309v21.4236c0 5.7549-2.4586 10.9465-6.3814 14.5806-2.9753 2.756-6.796 4.6172-11.0254 5.1474V35.2233c0-2.2837 1.8592-4.1422 4.1438-4.1422h3.5913c2.2902 0 4.1439-1.8557 4.1439-4.1422 0-2.2893-1.8537-4.1423-4.1439-4.1423H51.49c-2.2874 0-4.1438 1.853-4.1438 4.1423 0 2.2865 1.8564 4.1422 4.1438 4.1422h3.5913c2.2847 0 4.1439 1.8585 4.1439 4.1422v55.3511c-3.8041-.475-7.2766-2.0297-10.1027-4.3493-4.4532-3.6479-7.2987-9.1875-7.2987-15.3787V43.5077c0-8.0248-4.5885-14.9976-11.2822-18.4328-2.8316-1.4581-6.0418-2.2783-9.4369-2.2783H5.0818c-2.2874 0-4.1438 1.853-4.1438 4.1423v16.5688c0 2.2865 1.8537 4.1395 4.141 4.1423l11.8818.0055v23.1909c0 6.6855 1.4753 13.037 4.1163 18.7394 4.0858 8.8147 10.9618 16.0882 19.4898 20.6782 5.6108 3.021 11.9397 4.879 18.6583 5.249v36.245c0 2.284-1.8592 4.142-4.1439 4.142H51.49c-2.2874 0-4.1438 1.853-4.1438 4.142 0 2.287 1.8564 4.142 4.1438 4.142h40.3333c2.2902 0 4.1439-1.855 4.1439-4.142 0-2.289-1.8537-4.142-4.1439-4.142H88.232c-2.2846 0-4.1438-1.858-4.1438-4.142v-36.245c8.307-.458 16.0148-3.189 22.5148-7.583 7.34-4.957 13.139-12.0342 16.504-20.3435 2.096-5.1723 3.251-10.825 3.251-16.7401l.008-23.1964h11.868c2.29 0 4.144-1.8558 4.144-4.1423V26.9389c0-2.2893-1.854-4.1423-4.144-4.1423z" fill="#633A56"/><path d="M114.874 30.1918c-1.475 8.1133-7.108 14.0449-13.379 19.231v-5.9151c0-8.729 5.428-16.2127 13.086-19.2558.354 1.9054.464 3.8882.293 5.9399z" fill="#000"/><path d="M41.8239 70.8465v-2.3611c5.4698-3.6756 11.4342-7.0611 17.4013-10.2976 8.8153-4.7856 17.6334-9.2482 24.863-13.8405 2.1217-1.3476 4.1052-2.7063 5.9119-4.087 12.0369-7.4919 18.7969-14.9976 6.7351-26.513-2.4504 1.0908-5.8925 1.3918-9.517.6296-6.4036-1.3421-10.9535-5.4843-10.1634-9.2537.7901-3.7694 3.8483-6.2769 13.0255-4.3935 1.8785.3838 3.594 1.0162 5.0637 1.8087 9.18 3.9987 17.595 11.7916 19.437 21.7136.354 1.9054.465 3.8881.293 5.9399-1.475 8.1132-7.108 14.0449-13.379 19.231-3.4779 2.8774-7.1549 5.5285-10.4258 8.1933-2.2957 1.6817-4.6328 3.3276-6.981 4.9375-8.5584 5.8764-17.2853 11.3028-24.863 16.4143-3.6908 2.4881-7.108 4.9044-10.1026 7.2571-4.4533-3.6479-7.2987-9.1874-7.2987-15.3786zM109.426 171.232c20.413-15.525.749-20.568-25.338-26.193-8.0086-1.726-16.6195-3.507-24.863-5.664-17.4759-4.57-33.2971-10.827-38.1951-21.818-4.5251-10.969-3.8675-20.112.047-27.9712 4.0858 8.8147 10.9618 16.0882 19.4899 20.6782 3.409 3.463 9.4092 6.912 18.6582 10.416 5.7268 2.171 12.6995 4.363 21.0756 6.589 1.2569.431 2.5194.853 3.7874 1.268 12.5448 4.109 25.501 7.687 36.206 15.79 13.023 9.709 7.34 33.168-10.868 26.905z" fill="#00EDA6"/><path d="M24.9692 144.327c10.1523-7.686 22.3297-11.298 34.2556-15.155v16.29c-25.0978 5.462-43.2892 10.634-23.3877 25.77-18.208 6.263-23.8906-17.196-10.8679-26.905zM68.2086 5.1232c.7901 3.7694-3.7599 7.9116-10.1635 9.2537-3.6272.7622-7.0693.4612-9.5169-.6296-12.0614 11.5154-5.3014 19.0211 6.7323 26.513 1.2432.9499 2.5692 1.8888 3.9643 2.8194v18.1264c-1.6907-1.1791-3.3703-2.3749-5.0306-3.5899-3.8897-3.1674-8.3485-6.3128-12.3708-9.8502-5.4588-4.794-10.1137-10.3086-11.4369-17.5741-.1464-1.7563-.0856-3.4656.1547-5.117C32.0606 14.7608 40.6853 6.6475 50.1194 2.5384c1.4697-.7925 3.1852-1.4249 5.061-1.8087 9.18-1.8834 12.2353.624 13.0282 4.3935zM124.233 117.557c-5.08 11.399-21.91 17.707-40.1451 22.321v-18.477c12.542-4.54 19.5731-8.983 22.5151-13.471 4.726-7.193-1.058-14.4974-11.4897-22.5029-3.2792-2.513-7.0142-5.095-11.0254-7.7653V57.1329c5.9119 3.1813 11.8734 6.4923 17.4071 10.0712 9.083 5.8764 17 12.468 21.611 20.3824 4.843 8.3011 6.042 18.0605 1.127 29.9705z" fill="#00EDA6"/></svg>