<svg width="50" height="38" fill="none" xmlns="http://www.w3.org/2000/svg"><path d="M32.3925 37.8673c-.1792.0885-.5377.1327-1.0753.1327s-1.6129-.2655-3.2258-.7965c-1.6129-.531-2.6434-.9734-3.0914-1.3274 3.405-3.8054 7.0789-8.363 11.0215-13.6728-2.509-.6195-4.6147-1.9027-6.3172-3.8497-1.7025-1.9469-2.5538-4.3363-2.5538-7.1683 0-2.7434 1.0753-5.177 3.2258-7.301 2.061-2.124 4.4803-3.1859 7.2581-3.1859h.4032c3.4051 0 6.2724.9735 8.6022 2.9204C48.8799 5.5658 50 8.4862 50 12.3801c-.0896 3.8938-2.1057 8.3629-6.0484 13.4073-4.0322 5.0443-7.8853 9.071-11.5591 12.0799zm-25.2689 0c-.1792.0884-.4928.1327-.9408.1327-.5376 0-1.6577-.3097-3.3602-.9292C1.12 36.5398.1792 36.1416 0 35.8761c4.4803-5.1329 8.0645-9.6905 10.7527-13.6729-2.509-.6194-4.57-1.9026-6.1828-3.8496-1.7025-1.8584-2.5538-4.2479-2.5538-7.1683 0-2.8319 1.0305-5.3098 3.0914-7.4337C7.1685 1.716 9.6326.6984 12.5.6984h.4032c3.3154 0 6.138.9735 8.4678 2.9204 2.2401 1.947 3.3602 4.5134 3.3602 7.6993 0 3.2744-1.2545 6.9028-3.7635 10.8851-3.853 6.0179-8.4677 11.2392-13.844 15.6641z" fill="#633A56"/></svg>