<svg width="143" height="173" fill="none" xmlns="http://www.w3.org/2000/svg"><path d="M62.8276 10.5313c-.674 3.7915-6.445 5.9344-12.8845 4.7884-4.9699-.8837-8.8844-3.4657-10.1054-6.3403-2.5609.1684-4.7682.3286-6.1606.5219C23.1297 10.661 6.9163 16.057 12.7342 29.4999c.0553.1353.1133.2679.1741.3977 3.6769 8.1574 13.6608 11.0873 21.0119 15.4836 1.3869.7621 2.7709 1.5215 4.1522 2.281 7.0058 3.8439 13.9233 7.652 20.6943 11.797v3.38c-5.7876 1.7646-11.0613 4.7305-15.5256 8.6021-1.8178-1.1681-3.6465-2.3418-5.4698-3.5182-4.2599-2.7476-8.4811-5.5174-12.4094-8.312-4.2102-2.6897-8.5667-5.6638-12.4536-9.066C5.5543 44.1137-.1172 36.1495.0541 25.6697.1867 1.2941 30.3538-.8847 49.5094 1.2831c6.8926.856 13.9923 5.4567 13.3182 9.2482z" fill="#00EDA6"/><path d="M87.4834 83.7216c-4.4394-3.6175-10.1082-5.7881-16.2852-5.7881-4.7654 0-9.227 1.2896-13.0531 3.5402-4.5334-3.3165-9.6634-6.6579-14.904-10.0324 4.4643-3.8716 9.738-6.8374 15.5256-8.602v-3.3801c5.6881 3.4823 11.2712 7.1992 16.719 11.3746 4.7294 3.2585 8.8733 7.7625 11.9977 12.8878z" fill="#00EDA6"/><path d="M83.6296 62.8393v-3.3801c-5.6881 3.4823-11.2712 7.1992-16.719 11.3746-4.7322 3.2585-8.8733 7.7652-11.9978 12.8905 1.0139-.8312 2.0968-1.5823 3.2322-2.2506 3.8262-2.2506 8.2877-3.5402 13.0531-3.5402 4.7627 0 9.2242 1.2896 13.0531 3.5402 4.5333-3.3165 9.6634-6.6579 14.904-10.0324-4.4643-3.8716-9.738-6.8374-15.5256-8.602zm-58.2678-3.2282c-4.2101-2.6897-8.5667-5.6638-12.4536-9.0659v19.1591c0 2.582 2.0968 4.678 4.6825 4.678h15.5007c2.5858 0 4.6798-2.096 4.6798-4.678v-1.7811c-4.2599-2.7477-8.4811-5.5175-12.4094-8.3121z" fill="#633A56"/><path d="M129.488 27.9839v1.9137l-.003 20.6503v19.1564c0 2.582-2.094 4.678-4.68 4.678h-15.5c-2.586 0-4.683-2.096-4.683-4.678v-1.7784l.003-18.7587a3.909 3.909 0 00-.301-1.505c-.589-1.4166-1.989-2.4135-3.619-2.4135H83.6296v14.2105c-5.6881 3.4823-11.2712 7.1992-16.719 11.3746-4.7322 3.2585-8.8733 7.7653-11.9978 12.8906-5.7958 4.7221-9.4949 11.9185-9.4949 19.9796 0 6.735 2.583 12.868 6.8125 17.458-3.1023 1.245-6.5721 2.493-10.4397 3.742-2.1935.723-4.2654 1.51-6.2157 2.352-4.4892-6.757-7.1081-14.856-7.1081-23.552 0-12.8633 5.7323-24.4229 14.7741-32.2627 4.4643-3.8716 9.7381-6.8374 15.5256-8.602V45.2487H41.6913c-1.63 0-3.0278.9969-3.619 2.4135-1.3813-.7594-2.7653-1.5188-4.1521-2.281-7.3512-4.3963-17.335-7.3262-21.012-15.4836v-1.9137c0-2.212 1.7294-4.0042 3.8593-4.0042H125.629c2.13 0 3.859 1.7922 3.859 4.0042z" fill="#633A56"/><path d="M142.342 25.6697c.172 10.4799-5.503 18.4467-12.857 24.8782l.003-20.6503c.061-.1298.119-.2624.174-.3977 5.818-13.4429-10.395-18.8388-20.943-19.9986-1.392-.1933-3.599-.3535-6.16-.522-1.221 2.8747-5.1359 5.4567-10.1058 6.3404-6.4395 1.146-12.2105-.9969-12.8845-4.7884-.6741-3.7915 6.4257-8.3921 13.3183-9.2482 19.156-2.1678 49.323.011 49.455 24.3866zM107.006 170.711c13.136-5.921 24.349-13.335 6.531-23.508-6.345-3.011-13.263-5.013-20.2411-6.968 5.4063-3.278 10.0311-7.721 13.5251-12.979 38.333 16.514 30.598 53.835.185 43.455zM104.324 47.6622c-7.006 3.844-13.9234 7.652-20.6944 11.797-5.6882 3.4822-11.2713 7.1992-16.719 11.3746-4.7323 3.2585-8.8734 7.7652-11.9978 12.8905-6.1882 10.1485-8.3788 22.7267-3.2322 32.8647 8.4479-3.518 13.9758-7.025 17.1941-10.533-1.8398-4.172-.7265-8.3503 2.3234-12.5505 2.8923-3.9876 7.5334-7.9945 13.053-12.0318 4.5334-3.3165 9.6634-6.6579 14.904-10.0324 1.8149-1.1681 3.6469-2.339 5.4669-3.5154l.003-18.7587a3.909 3.909 0 00-.301-1.505z" fill="#00EDA6"/><path d="M87.8424 84.3319c-7.0832 4.7442-11.832 9.3587-14.3377 13.2247 1.1355 2.8054 1.2598 5.6034.0608 8.3974-.5249 1.229-1.3039 2.455-2.3675 3.684-3.1023 3.587-8.5971 7.172-17.1306 10.767-.4448.188-.8978.376-1.3592.563-.1574.064-.3177.13-.4779.194-3.1023 1.245-6.5721 2.493-10.4397 3.742-2.1935.723-4.2654 1.51-6.2157 2.352-38.3333 16.514-30.598 53.835-.1851 43.455-13.136-5.921-24.3492-13.335-6.5335-23.508 6.3456-3.01 13.2658-5.013 20.244-6.968 7.5059-2.101 15.0836-4.15 22.0949-7.34.2901-.129.5802-.265.8675-.4.2818-.133.5635-.268.8453-.406a56.8206 56.8206 0 001.9227-.983c.2321-.122.4614-.246.6907-.376.6602-.361 1.315-.74 1.9614-1.132.2542-.152.5028-.306.7514-.464.094-.058.1879-.116.2791-.177.2486-.157.4944-.317.7375-.48.2929-.191.5829-.389.8702-.588a46.6497 46.6497 0 002.9449-2.212c2.0858-1.607 3.8317-3.377 5.2627-5.272 7.8954-10.458 6.2075-24.7013-.4862-36.0731z" fill="#00EDA6"/><path d="M113.93 103.704c0 8.696-2.619 16.795-7.109 23.552-3.494 5.258-8.1187 9.701-13.525 12.979a42.36 42.36 0 01-9.6662 4.333v8.373c0 2.289 1.8564 4.142 4.1438 4.142h3.5913c2.3537 0 4.2516 1.963 4.1384 4.344-.105 2.226-2.025 3.94-4.2544 3.94H51.0316c-2.3565 0-4.2516-1.963-4.1383-4.341.1049-2.228 2.0249-3.943 4.2543-3.943h3.4753c2.2874 0 4.1438-1.853 4.1438-4.142v-8.373a42.36 42.36 0 01-9.6662-4.333c7.5087-2.101 15.0836-4.15 22.0978-7.34 3.1023-1.411 6.0969-3.046 8.923-5.006 3.8703-1.425 7.3042-3.753 10.0447-6.727 4.2294-4.59 6.8124-10.72 6.8124-17.458 0-8.0639-3.699-15.2575-9.4949-19.9824a25.9477 25.9477 0 00-3.2322-2.2479c4.5334-3.3165 9.6635-6.6579 14.904-10.0324 9.0417 7.8398 14.7747 19.3994 14.7747 32.2627z" fill="#633A56"/></svg>